# xmcd
#
# Track frame offsets:
#	150
#	900
#	1650
#	2400
#	3150
#	3900
#	4650
#	278926
#
# Disc length: 4440 seconds
#
# Revision: 1
# Processed by: cddbd v1.4PL0 Copyright (c) Steve Scherf et al.
# Submitted via: EasyCDDAExtractor 5.1.0
#
DISCID=37115608
DTITLE=John Coltrane - Blue Train
DYEAR=2003
DGENRE=Blues
TTITLE0=Blue Train
TTITLE1=Moment's Notice
TTITLE2=Locomotion
TTITLE3=I'm Old Fashioned
TTITLE4=Lazy Bird
TTITLE5=Blue Tain (Alternate Take)
TTITLE6=Lazy Bird (Alternate Take)
TTITLE7=Data Track
EXTD=
EXTT0=
EXTT1=
EXTT2=
EXTT3=
EXTT4=
EXTT5=
EXTT6=
EXTT7=
PLAYORDER=
